<?xml version="1.0" standalone="no"?>
<!DOCTYPE svg PUBLIC "-//W3C//DTD SVG 20010904//EN"
 "http://www.w3.org/TR/2001/REC-SVG-20010904/DTD/svg10.dtd">
<svg version="1.0" xmlns="http://www.w3.org/2000/svg"
 width="500.000000pt" height="500.000000pt" viewBox="0 0 500.000000 500.000000"
 preserveAspectRatio="xMidYMid meet">

<g transform="translate(0.000000,500.000000) scale(0.100000,-0.100000)"
fill="#000000" stroke="none">
<path d="M3255 4400 c-41 -43 -81 -53 -138 -36 l-46 14 24 -32 c42 -56 47 -81
26 -142 l-18 -55 26 24 c65 60 94 67 164 42 l39 -13 -20 21 c-39 43 -54 85
-46 135 3 26 11 53 16 60 19 23 2 12 -27 -18z"/>
<path d="M2877 3913 c-10 -12 -24 -23 -32 -23 -22 0 -18 -14 7 -25 13 -6 27
-20 33 -32 l11 -21 9 21 c6 12 20 26 33 32 25 11 29 25 8 25 -8 0 -23 11 -33
23 l-18 24 -18 -24z"/>
<path d="M3595 3861 c-3 -6 -2 -18 3 -27 7 -13 10 -13 20 -1 10 11 9 17 -2 26
-10 8 -16 9 -21 2z"/>
<path d="M1583 3125 c-98 -29 -215 -127 -265 -220 -15 -28 -50 -120 -78 -205
-28 -85 -89 -272 -136 -415 -47 -143 -105 -321 -130 -395 -24 -74 -44 -140
-44 -147 0 -8 46 -12 168 -12 285 1 509 -31 767 -107 134 -40 193 -63 278
-106 31 -16 57 -27 57 -25 0 12 -191 132 -264 167 -185 88 -415 150 -638 172
-71 6 -128 16 -128 20 0 4 18 56 39 116 61 165 170 468 201 557 30 86 152 417
195 529 14 38 24 72 23 76 -2 4 -22 2 -45 -5z"/>
<path d="M3550 3138 c0 -4 59 -166 175 -483 161 -437 285 -785 285 -800 0 -8
-27 -15 -77 -19 -343 -30 -631 -123 -860 -278 -40 -27 -73 -51 -73 -54 0 -2
19 5 41 17 181 92 545 183 814 205 50 3 161 6 248 6 86 -1 157 0 157 1 0 1
-50 153 -110 337 -61 184 -144 439 -186 566 -82 254 -114 316 -200 393 -27 24
-76 56 -109 72 -61 28 -105 43 -105 37z"/>
<path d="M4020 2871 c0 -8 45 -144 57 -171 3 -8 7 -21 9 -27 6 -31 198 -609
203 -613 3 -3 7 -12 7 -20 1 -8 32 -108 69 -223 38 -114 66 -209 63 -212 -2
-2 -74 -1 -159 4 -91 6 -201 5 -269 0 -63 -5 -128 -9 -143 -9 -42 0 -299 -37
-412 -61 -168 -34 -404 -109 -500 -157 -47 -23 -50 -24 -60 -6 -5 10 -35 44
-65 75 -73 74 -145 103 -245 97 -40 -3 -90 -14 -116 -25 -54 -24 -120 -81
-149 -127 l-20 -33 -108 43 c-138 55 -313 108 -439 133 -292 58 -611 85 -842
70 -79 -5 -146 -7 -148 -5 -2 1 24 85 57 186 33 101 60 191 60 200 0 9 4 20 9
25 13 15 283 846 277 852 -11 11 -83 -17 -142 -55 -116 -75 -172 -166 -229
-372 -20 -74 -61 -218 -90 -320 -125 -431 -156 -544 -151 -557 3 -8 2 -12 -3
-9 -4 3 -17 -29 -29 -72 -11 -42 -20 -77 -19 -78 6 -3 163 20 167 25 3 3 19 6
35 7 17 0 102 6 189 12 443 33 930 -13 1356 -129 70 -19 76 -19 85 -3 6 9 20
32 33 51 12 19 20 39 16 44 -3 5 -2 8 3 7 4 -1 30 12 57 30 102 66 215 64 320
-6 31 -20 54 -38 52 -40 -3 -2 5 -18 17 -37 12 -18 27 -40 32 -50 10 -16 15
-16 85 4 304 85 728 141 1065 141 211 0 584 -32 669 -57 16 -4 18 -1 12 23
-19 78 -38 134 -44 130 -4 -2 -7 10 -8 27 0 18 -8 57 -17 87 -9 30 -44 151
-77 268 -146 516 -184 640 -208 692 -30 65 -129 168 -191 200 -59 29 -121 51
-121 41z"/>
<path d="M2265 2700 c-3 -6 1 -7 9 -4 18 7 21 14 7 14 -6 0 -13 -4 -16 -10z"/>
</g>
</svg>
